Coordinates
version=1
nRows=14
nColumns=63
inDegrees=yes

Units are S.I. units (second, meters, Newtons, ...)
If the header above contains a line with 'inDegrees', this indicates whether rotational values are in degrees (yes) or radians (no).

endheader
time	pelvis_tilt	pelvis_list	pelvis_rotation	pelvis_tx	pelvis_ty	pelvis_tz	hip_flexion_r	hip_adduction_r	hip_rotation_r	knee_angle_r	knee_angle_r_beta	ankle_angle_r	subtalar_angle_r	mtp_angle_r	hip_flexion_l	hip_adduction_l	hip_rotation_l	knee_angle_l	knee_angle_l_beta	ankle_angle_l	subtalar_angle_l	mtp_angle_l	L5_S1_Flex_Ext	L5_S1_Lat_Bending	L5_S1_axial_rotation	L4_L5_Flex_Ext	L4_L5_Lat_Bending	L4_L5_axial_rotation	L3_L4_Flex_Ext	L3_L4_Lat_Bending	L3_L4_axial_rotation	L2_L3_Flex_Ext	L2_L3_Lat_Bending	L2_L3_axial_rotation	L1_L2_Flex_Ext	L1_L2_Lat_Bending	L1_L2_axial_rotation	L1_T12_Flex_Ext	L1_T12_Lat_Bending	L1_T12_axial_rotation	Abs_r3	Abs_r2	Abs_r1	Abs_t1	Abs_t2	neck_flexion	neck_bending	neck_rotation	arm_flex_r	arm_add_r	arm_rot_r	elbow_flex_r	pro_sup_r	wrist_flex_r	wrist_dev_r	arm_flex_l	arm_add_l	arm_rot_l	elbow_flex_l	pro_sup_l	wrist_flex_l	wrist_dev_l
1.101695	-6.987931	-0.531357	100.993360	0.308036	0.716868	0.917660	-2.452995	0.241255	-11.297888	1.046264	0.018261	22.070264	6.458818	0.000000	2.154234	1.722767	8.295687	7.910436	0.138063	16.640549	-0.052401	0.000000	-0.041310	-0.132200	-0.520097	-0.076717	-0.175826	-0.552603	-0.067868	-0.321431	-0.552603	-0.047213	-0.321431	-0.455085	-0.038360	-0.269582	-0.422579	-0.023604	-0.204778	-0.390073	-0.295073	-1.495472	-2.892623	0.000000	0.000000	4.280921	0.766477	-0.578457	12.302300	-7.462096	60.151290	45.856597	13.153478	-4.566326	18.011035	11.694364	-11.753708	55.533953	51.977966	87.809092	10.853316	-0.430407
1.118644	-6.959731	-0.655699	100.904529	0.308358	0.716784	0.917785	-2.238325	0.235590	-11.316391	1.123762	0.019613	22.137604	6.623695	0.000000	2.295061	1.710770	8.331285	7.912310	0.138096	16.531891	-0.238867	0.000000	-0.047084	-0.131265	-0.474987	-0.087440	-0.174582	-0.504674	-0.077354	-0.319157	-0.504674	-0.053812	-0.319157	-0.415614	-0.043722	-0.267675	-0.385927	-0.026904	-0.203329	-0.356241	-0.336316	-1.484894	-2.641737	0.000000	0.000000	4.089252	0.376659	-0.750631	12.107657	-7.407319	59.262592	46.052049	13.896162	-5.091735	18.553510	11.762288	-11.648612	55.187634	51.813002	87.654155	11.917644	-0.058383
1.135593	-6.932294	-0.776661	100.768100	0.308777	0.716688	0.917949	-2.011232	0.228789	-11.227256	1.219133	0.021278	22.176508	6.681073	0.000000	2.431836	1.690797	8.265089	7.911677	0.138085	16.424168	-0.356180	0.000000	-0.054776	-0.130506	-0.422782	-0.101724	-0.173573	-0.449206	-0.089991	-0.317313	-0.449206	-0.062603	-0.317313	-0.369934	-0.050865	-0.266129	-0.343510	-0.031299	-0.202154	-0.317086	-0.391259	-1.476314	-2.351386	0.000000	0.000000	3.878223	-0.050907	-0.996528	11.901069	-7.351441	58.370990	46.265141	14.629891	-5.587072	18.994829	11.802099	-11.555214	54.826016	51.679147	87.466038	12.850951	0.321614
1.152542	-6.906636	-0.898579	100.611518	0.309267	0.716578	0.918166	-1.765151	0.215362	-11.204703	1.344862	0.023472	22.218964	6.831048	0.000000	2.576490	1.666097	8.126631	7.917464	0.138186	16.326092	-0.408911	0.000000	-0.063242	-0.130393	-0.372347	-0.117446	-0.173423	-0.395619	-0.103900	-0.317039	-0.395619	-0.072279	-0.317039	-0.325804	-0.058726	-0.265898	-0.302532	-0.036136	-0.201979	-0.279260	-0.451730	-1.475037	-2.070882	0.000000	0.000000	3.619543	-0.497920	-1.300944	11.743646	-7.274935	57.629764	46.341355	15.512666	-5.634234	19.177868	11.801975	-11.481973	54.415446	51.577106	87.285819	13.678264	0.655645
1.169492	-6.876370	-1.014491	100.450945	0.309776	0.716450	0.918440	-1.512047	0.205439	-11.196080	1.493103	0.026060	22.258021	6.976154	0.000000	2.715272	1.640935	8.076130	7.914774	0.138139	16.203400	-0.611285	0.000000	-0.073819	-0.129628	-0.326163	-0.137088	-0.172406	-0.346548	-0.121277	-0.315178	-0.346548	-0.084367	-0.315178	-0.285393	-0.068548	-0.264338	-0.265007	-0.042180	-0.200794	-0.244622	-0.527279	-1.466381	-1.814021	0.000000	0.000000	3.314378	-0.936515	-1.642293	11.640647	-7.204906	57.061574	46.359842	16.379984	-5.418053	19.193563	11.757097	-11.419449	53.935815	51.517668	87.125644	14.393443	0.950159
1.186441	-6.845765	-1.129351	100.298800	0.310299	0.716293	0.918737	-1.253746	0.195630	-11.240516	1.658906	0.028953	22.318198	7.163594	0.000000	2.855797	1.612821	8.030283	7.911153	0.138076	16.097100	-0.811443	0.000000	-0.085797	-0.128814	-0.287545	-0.159333	-0.171323	-0.305517	-0.140956	-0.313198	-0.305517	-0.098057	-0.313198	-0.251602	-0.079671	-0.262677	-0.233631	-0.049024	-0.199533	-0.215659	-0.612838	-1.457170	-1.599241	0.000000	0.000000	2.964774	-1.333648	-1.971431	11.599602	-7.130066	56.756867	46.262479	17.389300	-4.846141	18.809005	11.654797	-11.382501	53.392930	51.528722	87.012675	14.925703	1.172386
1.203390	-6.813162	-1.227750	100.133834	0.310830	0.716136	0.919086	-0.999165	0.185329	-11.348316	1.852881	0.032339	22.409446	7.460088	0.000000	2.977683	1.579282	7.963605	7.897288	0.137834	16.000400	-1.017282	0.000000	-0.102173	-0.127295	-0.247598	-0.189745	-0.169302	-0.263073	-0.167860	-0.309505	-0.263073	-0.116774	-0.309505	-0.216649	-0.094878	-0.259580	-0.201174	-0.058382	-0.197180	-0.185699	-0.729811	-1.439986	-1.377068	0.000000	0.000000	2.572350	-1.697874	-2.347399	11.608255	-7.086467	56.682293	46.141294	18.258326	-4.075706	18.243804	11.576812	-11.367680	52.932200	51.577208	86.932305	15.274160	1.300776
1.220339	-6.777531	-1.325427	100.001491	0.311318	0.715949	0.919438	-0.751954	0.182240	-11.487610	2.048120	0.035746	22.527488	7.761534	0.000000	3.117003	1.536803	7.814629	7.914353	0.138132	15.970886	-1.065424	0.000000	-0.119305	-0.125431	-0.219827	-0.221560	-0.166824	-0.233567	-0.196005	-0.304974	-0.233567	-0.136353	-0.304974	-0.192349	-0.110786	-0.255780	-0.178610	-0.068171	-0.194293	-0.164871	-0.852180	-1.418905	-1.222614	0.000000	0.000000	2.155346	-1.998884	-2.685936	11.679865	-7.067039	56.943643	45.966317	19.001425	-3.145082	17.313251	11.473266	-11.379448	52.468176	51.681740	86.909393	15.535557	1.334064
1.237288	-6.741108	-1.416016	99.889301	0.311728	0.715739	0.919748	-0.520129	0.180370	-11.723600	2.250174	0.039273	22.691655	8.177859	0.000000	3.241076	1.500881	7.778028	7.920361	0.138236	15.931271	-1.249465	0.000000	-0.137294	-0.123001	-0.201514	-0.254968	-0.163591	-0.214109	-0.225560	-0.299065	-0.214109	-0.156913	-0.299065	-0.176325	-0.127491	-0.250824	-0.163730	-0.078450	-0.190528	-0.151136	-0.980676	-1.391411	-1.120761	0.000000	0.000000	1.732879	-2.233896	-2.978245	11.755540	-7.074472	57.350848	45.782513	19.850235	-2.136689	16.004229	11.348914	-11.414176	52.036870	51.857882	86.940219	15.653490	1.330912
1.254237	-6.712873	-1.504944	99.834701	0.312026	0.715499	0.919998	-0.313848	0.174503	-12.014252	2.442031	0.042621	22.880337	8.602460	0.000000	3.367266	1.475388	7.761712	7.939985	0.138579	15.916227	-1.380347	0.000000	-0.154725	-0.121552	-0.203047	-0.287340	-0.161664	-0.215737	-0.254198	-0.295542	-0.215737	-0.176836	-0.295542	-0.177666	-0.143678	-0.247869	-0.164975	-0.088410	-0.188284	-0.152285	-1.105187	-1.375022	-1.129285	0.000000	0.000000	1.314725	-2.391853	-3.190776	11.820528	-7.075718	57.812661	45.510589	21.077854	-0.764815	14.359667	11.177203	-11.477923	51.596189	52.122957	87.020116	15.693108	1.331310
1.271186	-6.683856	-1.581511	99.794298	0.312235	0.715260	0.920151	-0.147427	0.177201	-12.272095	2.607891	0.045516	23.049959	8.975753	0.000000	3.473700	1.446438	7.713385	7.957005	0.138876	15.923404	-1.438868	0.000000	-0.171677	-0.119531	-0.216995	-0.318822	-0.158976	-0.230557	-0.282049	-0.290627	-0.230557	-0.196210	-0.290627	-0.189871	-0.159420	-0.243747	-0.176309	-0.098096	-0.185153	-0.162746	-1.226275	-1.352153	-1.206862	0.000000	0.000000	0.895406	-2.477312	-3.315810	11.911074	-7.150667	58.551333	45.328946	22.006343	0.397420	12.464779	10.963659	-11.562008	51.181358	52.454010	87.138708	15.597334	1.296601
1.288136	-6.661321	-1.653504	99.799279	0.312312	0.715015	0.920182	-0.021014	0.179046	-12.551283	2.743916	0.047890	23.193067	9.324461	0.000000	3.567067	1.429771	7.728640	7.973100	0.139157	15.926982	-1.518863	0.000000	-0.186538	-0.117948	-0.246931	-0.346419	-0.156871	-0.262364	-0.306463	-0.286778	-0.262364	-0.213194	-0.286778	-0.216064	-0.173219	-0.240519	-0.200631	-0.106588	-0.182701	-0.185198	-1.332420	-1.334249	-1.373355	0.000000	0.000000	0.488980	-2.490097	-3.356643	11.940732	-7.224431	59.149400	45.122939	23.428184	1.804765	10.458656	10.699047	-11.659897	50.752355	52.850389	87.291542	15.493713	1.277812
1.305085	-6.642834	-1.723680	99.860373	0.312234	0.714768	0.920071	0.062168	0.182505	-12.882390	2.837768	0.049528	23.296580	9.674642	0.000000	3.645020	1.432497	7.924292	7.979518	0.139269	15.895184	-1.775049	0.000000	-0.198436	-0.116395	-0.291603	-0.368515	-0.154805	-0.309828	-0.326010	-0.283003	-0.309828	-0.226792	-0.283003	-0.255153	-0.184267	-0.237352	-0.236927	-0.113386	-0.180296	-0.218702	-1.417406	-1.316682	-1.621809	0.000000	0.000000	0.105081	-2.438339	-3.326964	11.878036	-7.282151	59.459002	44.897996	25.503959	3.503464	8.440872	10.383091	-11.760963	50.286214	53.312992	87.470790	15.440883	1.352503
1.322034	-6.641863	-1.786796	99.964909	0.312057	0.714549	0.919828	0.092860	0.177905	-13.216711	2.876233	0.050200	23.341960	9.975699	0.000000	3.700502	1.451061	8.115569	7.974689	0.139185	15.875378	-1.942503	0.000000	-0.209279	-0.116729	-0.344742	-0.388653	-0.155250	-0.366288	-0.343825	-0.283815	-0.366288	-0.239185	-0.283815	-0.301649	-0.194337	-0.238034	-0.280103	-0.119582	-0.180814	-0.258556	-1.494862	-1.320465	-1.917351	0.000000	0.000000	-0.244196	-2.290413	-3.231962	11.772725	-7.349502	59.675251	44.677016	27.815332	5.310706	6.390099	10.076608	-11.893998	49.913191	53.834229	87.675827	15.332095	1.431952
